<!-- by TradingView --><svg width="56" height="56" viewBox="0 0 56 56" xmlns="http://www.w3.org/2000/svg"><path fill="#F0F3FA" d="M0 0h56v56H0z"/><path d="M28 45a9.72 9.72 0 0 0 9.47-7.53 9.72 9.72 0 0 0 0-18.94 9.72 9.72 0 0 0-18.94 0 9.72 9.72 0 0 0 0 18.94A9.72 9.72 0 0 0 28 45Zm-7.58-23.7-.09-.33c-1.7-6.1 6.13-10.66 11.21-8.37.34.15.5.27.48.34-.02.06-.15.04-.45-.09-4.55-1.92-10.4 1.62-10.86 6.58-.06.66-.03 1.16.1 1.48.09.23.17.32.33.35.1.02.13.01.24-.11.14-.15.32-.43.36-.54a3.22 3.22 0 0 1 1.86-1.72.9.9 0 0 1 .53.04c.13.07.28.32.37.58.48 1.48 1.87 1.93 3.19 1.26.14-.08.37-.3.44-.44.25-.5-1.11-2.04-2.02-3.06-.32-.37-.59-.67-.7-.84-.3-.43-.36-1-.18-1.56.14-.42.34-.6.9-.8 1.45-.53 3.85-.97 5.32-.28.12.05.24.27.24.44a2.1 2.1 0 0 1-.7 1.4 6.3 6.3 0 0 0-.36.32c-.24.23-.57.44-.88.57-.36.14-.58.13-.4-.03a3.52 3.52 0 0 1 .5-.42c.22-.16.83-.7.97-.86.16-.18.26-.37.23-.44a.34.34 0 0 0-.11-.12c-.24-.16-1.49-.2-2.43-.08-1.18.15-1.87.27-2.15.37-.27.1-.55.25-.58.3-.24.47.41 1.24 1.15 2.1.87 1.03 1.87 2.2 1.63 3.17-.08.33-.32.82-.47.96-1.2 1.2-4.1 1.12-4.1-1.12 0-.08-.18-.3-.28-.35-.11-.04-.46.05-.72.2-.35.19-.62.49-.91 1.03-.17.3-.42.66-.49.7-.1.07-.4.16-.5.16-.29 0-.57-.32-.67-.79Zm12.68-6.97c.05-.18.12-.34.22-.5.06-.1.22-.1.34 0a7.8 7.8 0 0 1 2.02 2.9 8.31 8.31 0 0 1-.03 6.97c-.27.54-.85 1.24-.85 1a16.93 16.93 0 0 0 .76-2.17c.2-.8.2-2.05.01-3.53a7.65 7.65 0 0 0-1.4-3.27c-.23-.3-.46-.53-.5-.52-.03.01-.04.11-.03.35.02 1.64.1 3.29.17 4.94.04.75.08 1.51.1 2.27-.22.8-.55 1.53-1.4 1.82-.4.14-.76-.05-.93-.43-.16-.33-.24-.35-.38-.07-.15.29-.51.59-.86.5-.2-.06-.3-.13-.47-.4-.1-.16-.2-.26-.23-.26s-.1.06-.17.13c-.71.76-1.4.68-2.01-.05l-.08-.1-.14.08a8.9 8.9 0 0 1-2.5.85c-.21.05-1.35.03-1.96-.04a6.82 6.82 0 0 1-2.54-.74 1.4 1.4 0 0 0-.39-.13c-.07.01-.1.09-.18.36a4.3 4.3 0 0 1-.35.8c-.99 1.48-3.5 2.09-5.16 2.03-1.1-.04-1.21-.06-1.21-.14 0-.07.02-.08.23-.17.79-.35 1.6-.6 2.43-.86a14.5 14.5 0 0 0 3.37-1.4c.18-.13.2-.22.13-.57a5.3 5.3 0 0 0-.12-.48c-.1-.3-.18-.64-.24-.93a.93.93 0 0 1 0-.5c.06-.27.12-.4.3-.7.17-.25.25-.25.25.01a1.8 1.8 0 0 0 .72 1.32 3.18 3.18 0 0 0 .7.4c.11.07 1.03.37 1.33.45.86.22 1.4.29 2.14.3.9 0 1.9-.23 2.73-.62.16-.08.3-.19.44-.3a3.48 3.48 0 0 1 .61-.38c.03 0 .05.1.07.2.02.2.11.41.24.54.2.2.84.32 1.08.22.17-.08.38-.28.6-.6.28-.41.35-.41.32-.01-.03.34.02.47.19.52.33.1.46.03.82-.4.46-.54.49-.56.54-.51.03.03.04.08.01.19-.04.23.05.45.24.6.17.14.27.16.55.12.2-.04.25-.06.36-.17.08-.07.17-.18.22-.25l.08-.13c0-1.13-.08-2.26-.15-3.4-.1-1.43-.18-2.87-.13-4.3.01-.49.03-.63.1-.84Zm-9.64 2.44c.06-.08.14-.2.2-.26.08-.1.24-.14.28-.08 0 .02.17.12.36.23.4.24.4.26.23.55l-.1.2-.05.07-.13.21a1 1 0 0 1-.14.22c-.06.06-.07.06-.15 0-.65-.39-.8-.49-.87-.45l-.05.1c-.12.21-.28.43-.35.43a9.94 9.94 0 0 0-.54-.32c-.24-.14-.34-.21-.34-.26 0-.06.16-.36.27-.51.04-.06.1-.15.12-.21a.84.84 0 0 1 .11-.18c.07-.08.13-.07.38.1a19.33 19.33 0 0 0 .42.26c.16.1.23.08.35-.1Zm6.53 1.2c.05-.11.3-.53.39-.62.02-.03.06-.06.08-.06.04 0 .31.18.7.44.25.17.25.18.1.45a9.85 9.85 0 0 0-.37.62l-.06.09-.13-.08a7.7 7.7 0 0 1-.72-.46c-.07-.04-.1-.07-.1-.14 0-.05.02-.1.04-.11a.37.37 0 0 0 .07-.13Zm-.5 1.87c0-.03.11-.26.26-.51.15-.25.28-.46.3-.46.04 0 .2.09.66.37.22.14.39.22.41.2.05-.02.33-.38.38-.47a.13.13 0 0 1 .11-.07c.1 0 .9.49.93.56.02.06 0 .13-.09.25l-.09.14a5.41 5.41 0 0 0-.24.43c-.13.24-.16.26-.34.14a4.17 4.17 0 0 0-.76-.46c-.08-.01-.1 0-.18.13-.24.41-.28.44-.39.38-.6-.33-.97-.57-.97-.63ZM12.4 25.36c1.22-3.06 3.25-5.46 6.6-6.03.3-.05.41-.06.47-.02.09.06 0 .14-.25.22-3.13 1.06-5.64 3.23-6.31 6.6l-.1.46c-.06.23-.12.47-.15.72a4.2 4.2 0 0 0 .26 2.22c.24.53.66.76.96.53.26-.22.44-.61.6-.96l.16-.35c.3-.57.45-.78.77-1l.2-.13c.14-.1.45-.18.8-.23.36-.06.4-.04.58.19.14.18.23.36.37.79.15.46.32.86.43 1.03.1.16.3.24.6.24.34 0 .5-.06.74-.3a2 2 0 0 0 .26-.31c.07-.13.41-.46.48-.46.08 0 .25.14.39.32 1.22 1.6 3.97 1.38 5.45.35.13-.08.24-.12.29-.08.02 0 .03.15.02.4 0 .34 0 .4.05.47.09.12.32.22.52.22.26 0 .4-.06.58-.26.15-.15.4-.5.45-.63.03-.09.38-.58.41-.59.02 0 .05 0 .08.02.04.03.04.06 0 .21-.1.44-.1.6-.04.7.13.24.56.26.79.05a3.97 3.97 0 0 0 .53-.87c.07-.12.1-.15.16-.14.06 0 .07.03.08.21.03.26.11.43.28.56.38.32.92.33.98.02a3.43 3.43 0 0 0-.24-1.56c-.22-.69-.43-1.38-.14-2 .16-.34.24-.38.4-.19l.09.14.21.48c.12.25.22.49.22.52 0 .04-.06.13-.14.21-.15.15-.15.16-.05.45.22.64.36 1.16.42 1.63.03.18-.06.57-.18.8-.11.2-.6.74-.68.74l-.18.11-.15.1c-.07.01-.14 0-.34-.04a1.44 1.44 0 0 1-.63-.32c-.16-.15-.26-.17-.3-.06-.06.14-.34.42-.54.52-.22.12-.53.18-.73.15-.17-.03-.32-.17-.44-.42-.06-.12-.12-.2-.15-.2s-.16.11-.29.25c-.56.6-.96.68-1.48.3a.36.36 0 0 1-.12-.14 6.47 6.47 0 0 0-.08-.24c-.05-.15-.07-.17-.15-.17-.05 0-.1.02-.12.05-.02.02-.13.09-.25.14-1.5.73-3.72.73-4.95-.6-.32-.34-.35-.34-.7.1-.44.55-.7.7-1.12.63-.52-.1-.86-.52-1.15-.94a6.26 6.26 0 0 1-.34-.85c-.16-.42-.33-.55-.68-.49-.28.05-.47.19-.68.51-.14.2-.26.43-.38.65-.19.36-.38.72-.64 1.02-.4.43-.78.49-1.1.16-.21-.22-.5-.62-.65-.93a6.58 6.58 0 0 1-.06-4.68Zm25.77-3.77c-.04-1.02-.04-1.05.02-1.1.06-.04.1-.04.32.05l.34.15c.44.18.88.43 1.42.8.58.39.85.6 1.24 1a9.34 9.34 0 0 1 1.66 2.55c2.38 4.62-.73 9.65-5.29 10.8-.4.1-.52.07-.24-.06 4.28-2.04 7.35-6.49 4.19-11.39a5.8 5.8 0 0 0-2.26-2.19c-.52-.3-.55-.32-.61-.26 0 0 .13 4.44.08 5.59-.04.9-.17 2-.27 2.2-.14.26-.5.58-.82.72l-.3.13c-.06.02-.2.04-.33.04a.84.84 0 0 1-.66-.28 1.48 1.48 0 0 1-.32-.57c0-.2-.17-.25-.33-.1l-.33.35c-.12.15-.32.37-.44.48-.18.19-.2.22-.2.33 0 .17-.08.5-.17.7-.1.23-.5.83-.68 1.02l-.36.3-.44.3c-.14.1-.34.23-.44.28a5.52 5.52 0 0 0-.6.3c-.03 0-.07.02-.09.06-.04.05-.04.17-.03.6l.1 2.98c.06 1.12.19 1.67.49 1.99.13.13.18.16.4.19.23.03.42-.06.51-.24.08-.14.08-.14.08-1.58a46.55 46.55 0 0 0-.07-3.3c-.02-1.05-.02-1.05.05-1.22.18-.42.4-.58.52-.38.13.2.2.5.34 1.4.05.38.04.44-.05.44a.2.2 0 0 0-.11.05c-.05.05-.06.2-.04 2.27.02 2.13.02 2.22-.04 2.53a4.1 4.1 0 0 1-.11.46c-.3.8-1.16 1.27-1.86.63-.17-.16-.3-.22-.36-.17-.02 0-.11.18-.2.39-.35.74-.45.9-.73 1.14-.25.2-.4.26-.63.22a1.06 1.06 0 0 1-.56-.28c-.04-.06-.1-.1-.13-.1-.02 0-.09.08-.13.18-.32.63-.97 1.23-1.67.83-.26-.14-.47-.37-.5-.53-.01-.06-.04-.11-.06-.12-.02-.01-.12.06-.2.15-.1.1-.21.2-.27.22-.16.1-.46.15-.72.15-.33 0-.5-.08-.68-.32-.26-.35-.34-.73-.38-1.73-.02-.56-.02-.58-.08-.6-.05 0-.1.05-.23.24-1.71 2.57-4.47.36-4.9-1.98a6.5 6.5 0 0 1-.12-2.2c.06-.24.03-.36-.08-.36a9.5 9.5 0 0 1-5.43-2.61c-.2-.22-.4-.5-.4-.56 0-.09.08-.06.37.13l.52.34c.5.34 1.01.67 1.55.95.76.4.92.48 1.44.69a15.03 15.03 0 0 0 2.43.67c.16.02.2.06.15.2-.11.32-.16 1.36-.1 1.9.08.61.18.96.42 1.46.19.38.29.5.58.71.84.59 2.6.64 3.21-.34.54-.86.62-1.4.67-4.45.02-.98.04-2.01.06-2.29.03-.45.04-.52.12-.68.07-.14.1-.18.19-.2.1-.03.11-.03.17.04.06.08.06.11.04 4.17v4.28c.07.54.16.79.37 1.02.2.23.42.28.73.18.34-.1.47-.23.65-.6.08-.16.1-.2.17-.2.05 0 .08.03.15.18.05.1.08.2.08.23 0 .1.13.35.23.42.17.13.25.16.46.15.21 0 .4-.06.5-.16.06-.05.14-.21.32-.63.08-.2.21-.38.27-.38.01 0 .1.05.19.12.48.37.74.44 1.13.32.27-.08.36-.15.45-.33.06-.13.06-.14.08-3.22.01-2.57.03-3.09-.09-3.12-.04-.01-.1.04-.2.08-.85.37-1.8.57-2.73.56-.93 0-1.45-.08-1.34-.2l.67-.25.89-.32.8-.28c.46-.14.92-.3 1.34-.5l.32-.14c.36-.15.36-.15.39-.47.02-.25.03-.27.13-.37.08-.08.13-.1.23-.1.06 0 .13.02.15.04.02.02.03.13.03.24-.01.27.02.3.3.16l.31-.13c.17-.08.77-.38 1.06-.54.07-.04.2-.16.31-.26.15-.15.2-.22.22-.31.04-.23.01-.24-.54-.2-.53.05-1.03-.07-1.24-.3-.15-.16-.2-.34-.22-.71-.01-.37.03-.54.24-1 .3-.66.77-1.03 1.09-.86.37.2.76.56.98.9.08.13.16.25.18.26.05.04.21.03.32 0 .1-.04.45-.42.75-.8.06-.07.19-.2.28-.27.13-.1.19-.14.28-.14.16 0 .22.06.25.26.06.36.2.64.4.77.24.16.85.17 1 .02.12-.1.2-.3.22-.54.02-.24 0-1.97-.07-3.54a541.16 541.16 0 0 1-.12-3.6Zm-15.23 1.33c-.28-.11-.23-1.22.08-1.5.18-.16.2-.08.12.5-.03.24-.03.3 0 .35.05.06.11.06.24-.02a.33.33 0 0 1 .17-.06c.15.03.08.37-.1.58-.17.17-.33.22-.5.15Zm-6.69.2c.1.1.19.03.4-.25.2-.28.28-.33.37-.23.02.03.18.14.36.25.18.1.35.22.39.27l.07.07-.08.12a.71.71 0 0 0-.09.14l-.09.16-.2.34c-.12.24-.18.27-.35.15a13.2 13.2 0 0 0-.73-.47c-.06-.03-.17.09-.3.33-.14.24-.18.25-.44.09l-.38-.23c-.18-.1-.34-.21-.34-.24a2.5 2.5 0 0 1 .32-.61l.1-.18c.06-.1.14-.2.18-.2.03 0 .74.44.81.5Zm18.85 2.75a4.5 4.5 0 0 1 .77-.77c.09 0 .78.7.78.79 0 .04-.05.11-.1.17l-.32.36c-.12.14-.24.26-.28.27a5.33 5.33 0 0 1-.86-.82Zm-1.52.25c0-.02.15-.22.34-.42.2-.21.37-.38.4-.38.07 0 .78.71.78.78 0 .07-.1.2-.4.5a4 4 0 0 0-.22.27c-.02.03-.07.06-.1.06-.06 0-.78-.73-.8-.81Zm6.98-.3.1-.24c.1-.27.32-.03.65.68a4.43 4.43 0 0 1-.99 5.38c-.06 0-.05-.24.02-.3.04-.03.12-.17.19-.32.07-.14.15-.3.19-.35a3.3 3.3 0 0 0 .04-3.36c-.04-.06-.2-.4-.29-.61a.87.87 0 0 1-.06-.27c0-.12.07-.4.15-.6Zm-12.27.49c0-.03.38-.63.42-.65.06-.04.06-.04.38.17l.44.28c.1.05.13.09.13.15 0 .1-.47.93-.54.95-.03 0-.2-.09-.37-.2l-.43-.3c-.15-.1-.17-.17-.1-.29l.07-.11Zm-6.44.6c-.06-.69-.04-.9.08-1.07.2-.25.4.15.46.9.02.27.02.3.09.3.1.02.13-.06.18-.44.11-.8.15-.9.34-.82.07.03.25.4.33.7.1.37.1 1 .01 1.31-.06.24-.17.39-.31.42-.1.03-.33-.03-.54-.12-.19-.08-.26-.07-.33.05-.08.14-.31.25-.56.27-.53.04-.56-.74-.56-1.1 0-.59.04-.8.18-1.02.1-.17.15-.2.23-.14.06.05.07.27.04.9 0 .18.02.57.29.57.11 0 .12-.06.07-.71Zm3.37.42c-.22-.4-.08-1 .15-1.36.09-.14.15-.21.2-.21.06 0 .07.09.02.2-.05.08-.13.7-.1.77.06.16.2.21.33.12a.28.28 0 0 1 .17-.04c.13.01.16.14.08.35-.08.23-.12.3-.26.35-.25.1-.47.04-.59-.18Zm-5.95.49c-.08.17-.38.64-.62.48-.6-.4.3-1.68.1-.95-.05.23-.05.31.03.4.08.1.18.07.3-.05.05-.06.12-.1.15-.1.08 0 .1.1.04.22Zm-3.6 4.75c-.42-.42-.13-1.45.18-1.86.1-.12.1-.13.17-.09.03.02.04.07.03.15-.02.18-.11.7-.15.87-.07.3.01.38.48.4.06 0 0 .2-.1.35-.17.23-.25.29-.39.29-.1 0-.14-.02-.22-.1Zm21.27-.26c.33-.33.43-.38 1.07-.56.3-.09.66-.1.78-.04.04.02.1.1.14.16.05.12.06.15.02.42a3.08 3.08 0 0 1-.25.9c-.1.3-.76.83-1.19.95l-.44.12c-.25.08-.37.09-.44.03-.06-.05 0-.15.13-.2.14-.07.4-.27.6-.47.14-.14.16-.18.15-.28 0-.08-.03-.12-.09-.15-.12-.07-.28-.02-.54.17-.29.21-.35.21-.4.01-.08-.31.08-.67.46-1.06Zm-8.5 0c.05-.2.12-.35.19-.43.02-.03.06-.04.08-.03.03.02.01.21-.04.34-.04.09-.04.11 0 .19.08.11.2.1.31-.03.07-.08.1-.1.14-.06.14.08.04.32-.22.5-.15.09-.23.1-.35.03-.14-.07-.18-.27-.11-.5Zm-8.9.42c.08.03.12-.02.33-.35.1-.17.2-.3.22-.3.03 0 .2.09.38.2a4 4 0 0 0 .35.2c.05 0 .24.18.24.22 0 .03-.1.2-.2.4l-.2.39c0 .05-.11.14-.18.14a.34.34 0 0 1-.16-.06 8.85 8.85 0 0 0-.87-.51c-.02 0-.07.07-.1.15-.23.44-.27.53-.32.53h-.05c-.04-.01-.2-.1-.35-.2l-.44-.29c-.2-.12-.22-.19-.09-.39l.22-.34c.2-.31.22-.35.29-.35.03 0 .25.12.47.27l.47.29Zm2.99 1.8c.11-.15.63-.69.73-.75.13-.09.28-.01.34.16.02.07.01.13-.04.3-.1.3-.16.39-.4.64-.2.22-.24.3-.17.34.06.05.39.03.56-.03.2-.06.28-.05.43.09.1.08.17.36.2.78.03.27-.04.54-.2.78-.18.27-.21.32-.44.55-.24.24-.45.38-.58.38-.04 0-.18.02-.32.06-.25.06-.65.08-.76.04a.09.09 0 0 1-.05-.07c0-.07.36-.37.61-.5a2 2 0 0 0 .55-.43c.05-.1-.03-.14-.41-.18-.65-.07-.71-.11-.71-.5 0-.38.08-.6.53-1.46.02-.05.08-.14.13-.2Zm6.55 2.1c-.02-.14.16-.49.37-.7l.17-.2.15.02c.82.1.68 1.99 0 2.16-.19.05-.2-.13-.06-.65.09-.32.1-.6.02-.62-.02-.01-.08 0-.13.03l-.21.12c-.14.07-.3.05-.31-.16Zm-1.72.54.14-.23c.05-.09.11-.15.14-.15.23 0 .56.27.78.45l.07.06.1.08-.22.4c-.11.2-.23.41-.38.6l-.3-.2-.26-.17-.28-.19c-.11-.07-.12-.14-.04-.25.1-.12.17-.26.25-.4ZM24 42.49c.07-.12.18-.28.25-.36.22-.24.35-.14.16.13l-.12.21c-.02.08.03.16.11.16.04 0 .11.03.17.06.13.08.13.2.02.36-.17.24-.4.28-.6.1-.1-.1-.11-.12-.11-.27 0-.14.03-.22.12-.4Zm5.76-.01c0-.02.03-.05.06-.07a.27.27 0 0 1 .07-.03c.07 0 .84.7.84.76l-.18.24-.35.43c-.11.14-.18.2-.2.19a41.16 41.16 0 0 0-.73-.66c-.14-.13-.13-.16.23-.54.14-.16.26-.3.26-.32Z" fill="#0087D4"/></svg>